Coordinates
version=1
nRows=9
nColumns=36
inDegrees=yes

Units are S.I. units (second, meters, Newtons, ...)
If the header above contains a line with 'inDegrees', this indicates whether rotational values are in degrees (yes) or radians (no).

endheader
time	pelvis_tilt	pelvis_list	pelvis_rotation	pelvis_tx	pelvis_ty	pelvis_tz	hip_flexion_r	hip_adduction_r	hip_rotation_r	knee_angle_r	knee_angle_r_beta	ankle_angle_r	subtalar_angle_r	mtp_angle_r	hip_flexion_l	hip_adduction_l	hip_rotation_l	knee_angle_l	knee_angle_l_beta	ankle_angle_l	subtalar_angle_l	mtp_angle_l	lumbar_extension	lumbar_bending	lumbar_rotation	arm_flex_r	arm_add_r	arm_rot_r	elbow_flex_r	pro_sup_r	arm_flex_l	arm_add_l	arm_rot_l	elbow_flex_l	pro_sup_l
      3.43333330	     -2.27511311	      5.42523749	     -2.20739816	     -0.05215876	      1.12540454	     -0.04036615	     28.36613704	    -10.60279236	     -5.84981995	     13.46958739	      0.23508865	    -20.22453792	     -1.54923907	     -7.49999987	     28.32740626	     -5.93940182	    -17.77694486	     24.87537473	      0.43415719	    -16.65685321	      3.76770880	     -7.49999987	    -22.41495099	     -0.46122741	     -1.74925869	    -49.94928739	    -18.10860751	    -82.99411004	    108.50082954	     68.59686429	    -37.53857871	     -4.72502949	    -82.25633850	     42.35513010	     60.79157143
      3.43750000	     -2.19375333	      5.38738472	     -2.14656070	     -0.04643564	      1.11295529	     -0.04057614	     28.39967798	    -10.64749688	     -5.68323864	     13.20932743	      0.23054626	    -20.72578140	     -1.24048722	     -7.49999987	     28.44089158	     -5.96378956	    -17.52731112	     24.40069992	      0.42587255	    -16.89480066	      4.06928423	     -7.49999987	    -22.63440482	     -0.90808342	     -1.67697757	    -50.99876828	    -18.55586371	    -84.04648336	    108.71680935	     68.49510025	    -39.24864002	     -4.57586086	    -82.60766855	     42.23845697	     60.77873298
      3.44166670	     -2.06962350	      5.36747272	     -2.13016422	     -0.03858079	      1.10293806	     -0.04239948	     28.44953953	    -10.84692068	     -5.67340870	     13.25393702	      0.23132484	    -21.41988031	     -0.76728292	     -7.49999987	     28.31961003	     -5.83526670	    -17.21992318	     23.70460542	      0.41372341	    -17.13263401	      4.24960497	     -7.49999987	    -22.69987761	     -0.74397954	     -0.87248544	    -52.45534271	    -18.39218390	    -87.62025225	    110.03575253	     67.37786682	    -40.45445056	     -3.99572943	    -81.52442985	     44.33661394	     61.05309469
      3.44583330	     -1.95401989	      5.23710238	     -2.04285620	     -0.03019573	      1.08757471	     -0.04216670	     28.59195316	    -10.88677039	     -5.40807976	     13.71370377	      0.23934928	    -21.51981057	     -0.58231865	     -7.49999987	     28.44201799	     -5.97946151	    -16.76559576	     23.61830724	      0.41221723	    -16.74389090	      4.36694063	     -7.49999987	    -22.92434117	     -0.45746321	      0.29964947	    -55.62466803	    -17.83206445	    -90.39522231	    110.58661031	     62.21897961	    -41.73151009	     -4.48343032	    -79.58645058	     44.94266202	     61.33774776
      3.45000000	     -1.84327677	      5.14910905	     -1.78065246	     -0.02236733	      1.07591955	     -0.04383129	     28.69603271	    -11.01891425	     -5.04207199	     14.12511455	      0.24652976	    -21.62844947	     -0.22585083	     -7.49999987	     28.68124019	     -6.04132992	    -16.41510094	     23.78280843	      0.41508831	    -16.53971280	      4.41871691	     -7.49999987	    -22.95591265	     -0.42087772	      0.59648593	    -57.99436039	    -18.03162326	    -92.31942183	    110.65091646	     61.58028690	    -43.10702602	     -3.91398294	    -79.66510641	     47.10563559	     61.36215238
      3.45416670	     -1.68503077	      5.21999501	     -1.50694100	     -0.01644835	      1.06914044	     -0.04620541	     28.67805782	    -11.28099747	     -4.56683198	     14.50543973	      0.25316768	    -21.57880376	      0.34791716	     -7.49999987	     28.80724847	     -5.79652233	    -15.89407524	     23.68804785	      0.41343443	    -16.68560273	      5.16452346	     -7.49999987	    -22.87115283	     -0.45227436	      0.65998197	    -60.05039158	    -18.65406084	    -93.46053522	    110.14718773	     61.30388132	    -43.98149912	     -3.84989868	    -79.59073902	     47.62823104	     61.42170490
      3.45833330	     -1.47743081	      5.12452311	     -1.37252125	     -0.01210389	      1.05754300	     -0.04738940	     28.89280059	    -11.38322684	     -4.12616602	     15.14526853	      0.26433480	    -21.61076634	      0.77830006	     -7.49999987	     29.12760723	     -5.83086819	    -15.33945620	     23.84725584	      0.41621313	    -16.97245369	      5.65210590	     -7.49999987	    -23.06261189	     -0.36273963	      0.72947473	    -62.15183139	    -19.61912036	    -94.65301811	    109.61023386	     61.11624753	    -44.88658607	     -3.67743346	    -79.52990750	     48.25872690	     61.45839105
      3.46250000	     -1.21765846	      4.90118106	     -1.31126491	     -0.00554725	      1.04539444	     -0.04650471	     29.08023331	    -11.28142608	     -3.99806511	     15.92033882	      0.27786233	    -21.58968706	      0.65559564	     -7.49999987	     29.37265843	     -6.05733807	    -14.59892223	     24.07092909	      0.42011697	    -17.00563197	      6.36290708	     -7.49999987	    -23.46335013	      0.14481823	      1.79134607	    -64.87379463	    -18.57457581	    -96.68073151	    110.12239680	     57.49006349	    -45.21302785	     -4.01103747	    -77.57733544	     49.97824390	     62.52220766
      3.46666670	     -1.08906489	      4.78675431	     -1.23583826	     -0.00073797	      1.02883063	     -0.04970362	     29.79642325	    -11.45172374	     -3.62896720	     17.20616548	      0.30030424	    -21.50908369	      0.83561550	     -7.49999987	     30.03414084	     -6.20369199	    -14.15969351	     24.77136551	      0.43234189	    -17.14140708	      6.50115513	     -7.49999987	    -23.72198404	      0.33773166	      1.51052889	    -67.23752214	    -19.65262495	    -98.23444341	    109.71078436	     57.39024239	    -46.17469298	     -3.48791119	    -77.77974905	     50.98394140	     62.47809773
